<?xml version="1.0" encoding="utf-8"?>
<!-- Generator: Adobe Illustrator 19.2.0, SVG Export Plug-In . SVG Version: 6.00 Build 0)  -->
<svg version="1.1" id="レイヤー_1" xmlns="http://www.w3.org/2000/svg" xmlns:xlink="http://www.w3.org/1999/xlink" x="0px"
	 y="0px" viewBox="0 0 394.8 118.3" style="enable-background:new 0 0 394.8 118.3;" xml:space="preserve">
<style type="text/css">
	.st0{fill:#444444;}
	.st1{fill:#EE4035;}
	.st2{fill:#FFFFFF;}
</style>
<g id="XMLID_125_">
	<path id="XMLID_150_" class="st0" d="M302,85.2h-10.5c0.2,2.1,0.6,4.1,1.2,6h11.3C302.9,89.5,302.3,87.5,302,85.2z"/>
	<path id="XMLID_149_" class="st0" d="M336.2,85.2h-9.7c-0.3,2.2-0.9,4.2-2,6h11.7V85.2z"/>
	<path id="XMLID_148_" class="st0" d="M351.6,85.2h-9.7v6h11.6C352.4,89.5,351.8,87.5,351.6,85.2z"/>
	<path id="XMLID_147_" class="st0" d="M386.5,85.2H376c-0.3,2.2-0.9,4.2-2,6h11.3C385.9,89.3,386.3,87.3,386.5,85.2z"/>
	<rect id="XMLID_146_" x="240.4" y="85.2" class="st0" width="10.2" height="6"/>
	<path id="XMLID_145_" class="st0" d="M351.5,81.4c0.2-3.5,1.4-6.4,3.4-8.7c2.3-2.6,5.4-3.9,9.1-3.9c3.5,0,6.4,1.4,8.7,4.1
		c2,2.3,3.1,5.1,3.4,8.6h10.4c-0.2-6-2.2-11.1-5.9-15.2c-3.9-4.4-8.9-6.6-14.8-6.6c-5.2,0-9.8,2.1-13.8,6.3V35.3h-10.2v46.1H351.5z"
		/>
	<path id="XMLID_144_" class="st0" d="M179.5,85.2h-10.5c0.2,2.1,0.6,4.1,1.2,6h11.3C180.5,89.5,179.8,87.5,179.5,85.2z"/>
	<polygon id="XMLID_143_" class="st0" points="156.5,85.2 144,85.2 148.8,91.2 161.4,91.2 	"/>
	<rect id="XMLID_142_" x="259" y="85.2" class="st0" width="10.5" height="6"/>
	<rect id="XMLID_141_" x="221.9" y="85.2" class="st0" width="10.2" height="6"/>
	<path id="XMLID_140_" class="st0" d="M213.7,85.2H204c-0.3,2.2-0.9,4.2-2,6h11.7V85.2z"/>
	<rect id="XMLID_139_" x="221.9" y="60.8" class="st0" width="10.2" height="20.6"/>
	<path id="XMLID_138_" class="st0" d="M301.9,81.4c0.2-3.4,1.4-6.3,3.4-8.7c2.4-2.7,5.3-4,8.8-4c3.7,0,6.7,1.3,9,3.9
		c2,2.4,3.2,5.3,3.4,8.7h9.6V60.8H326v5.1c-4.1-4.2-8.7-6.3-13.8-6.3c-5.9,0-10.9,2.2-14.8,6.6c-3.7,4.1-5.6,9.2-5.9,15.2H301.9z"/>
	<rect id="XMLID_137_" x="240.4" y="95" class="st0" width="10.2" height="9.8"/>
	<path id="XMLID_136_" class="st0" d="M198.5,95c-1.9,1.3-4.3,2-6.9,2c-2.5,0-4.6-0.7-6.5-2h-13.2c0.8,1.6,1.8,3.1,3.1,4.5
		c4,4.4,9,6.6,15.1,6.6c4.8,0,9.3-2,13.5-5.9v4.6h10.2V95H198.5z"/>
	<rect id="XMLID_135_" x="259" y="35" class="st0" width="10.5" height="46.4"/>
	<rect id="XMLID_134_" x="221.9" y="95" class="st0" width="10.2" height="9.8"/>
	<path id="XMLID_133_" class="st0" d="M370.4,95c-1.9,1.3-4.1,2-6.6,2c-2.6,0-4.9-0.7-6.8-2h-15.2v9.8H352v-4.6
		c4,3.9,8.6,5.9,13.6,5.9c6,0,11-2.2,15-6.6c1.2-1.4,2.2-2.9,3.1-4.5H370.4z"/>
	<path id="XMLID_132_" class="st0" d="M320.9,95c-1.9,1.3-4.3,2-6.9,2c-2.5,0-4.6-0.7-6.5-2h-13.2c0.8,1.6,1.8,3.1,3.1,4.5
		c4,4.4,9,6.6,15.1,6.6c4.8,0,9.3-2,13.5-5.9v4.6h10.2V95H320.9z"/>
	<rect id="XMLID_131_" x="259" y="95" class="st0" width="31.1" height="9.8"/>
	<path id="XMLID_130_" class="st0" d="M227,49.2c1.8,0,3.4-0.6,4.7-1.9c1.3-1.3,1.9-2.9,1.9-4.7c0-1.8-0.6-3.4-1.9-4.7
		c-1.3-1.3-2.9-1.9-4.7-1.9c-1.8,0-3.4,0.6-4.7,1.9c-1.3,1.3-1.9,2.8-1.9,4.6c0,1.9,0.6,3.5,1.9,4.7C223.6,48.5,225.2,49.2,227,49.2
		z"/>
	<rect id="XMLID_129_" x="240.4" y="35.3" class="st0" width="10.2" height="46.1"/>
	<path id="XMLID_128_" class="st0" d="M179.4,81.4c0.2-3.4,1.4-6.3,3.4-8.7c2.4-2.7,5.3-4,8.8-4c3.7,0,6.7,1.3,9,3.9
		c2,2.4,3.2,5.3,3.4,8.7h9.6V60.8h-10.2v5.1c-4.1-4.2-8.7-6.3-13.8-6.3c-5.9,0-10.9,2.2-14.8,6.6c-3.7,4.1-5.6,9.2-5.9,15.2H179.4z"
		/>
	<path id="XMLID_127_" class="st0" d="M141.2,67.1h-11.8l11.5,14.3h12.4l-5.2-6.3c6.2-0.3,10.4-3.3,13.3-6.8
		c2.8-3.6,4.2-7.8,4.2-12.7c0-6.3-2.3-11.4-6.8-15.3c-4.1-3.5-8.5-5.2-16.7-5.2h-33.5v69.8h10.5l0-59.9h20
		c12.4,0,16.2,3.6,16.2,10.7C155.4,63.3,151.6,67.1,141.2,67.1z"/>
	<polygon id="XMLID_126_" class="st0" points="151.9,95 159.8,104.8 172.6,104.8 164.6,95 	"/>
</g>
<g id="XMLID_105_">
	<path id="XMLID_119_" class="st1" d="M86.5,81.2c0,7.1-5.8,12.9-12.9,12.9H28.2c-7.1,0-12.9-5.8-12.9-12.9V40.5
		c0-7.1,5.8-12.9,12.9-12.9h45.4c7.1,0,12.9,5.8,12.9,12.9V81.2z"/>
	<polygon id="XMLID_118_" class="st1" points="17.8,107.9 30.7,107.9 45.5,96.4 45.4,96.2 32.8,96.2 	"/>
	<polygon id="XMLID_117_" class="st1" points="85.3,107.9 72.4,107.9 57.6,96.4 57.7,96.2 70.4,96.2 	"/>
	<g id="XMLID_113_">
		<polygon id="XMLID_116_" class="st2" points="63.7,71.8 55.8,71.8 58.8,75.5 66.8,75.5 		"/>
		<path id="XMLID_115_" class="st2" d="M54,60.3h-7.5l7.3,9.1h7.9l-3.3-4c3.9-0.2,6.6-2.1,8.4-4.3c1.8-2.3,2.7-4.9,2.7-8.1
			c0-4-1.4-7.2-4.3-9.7c-2.6-2.2-5.4-3.3-10.6-3.3H33.4v44.2h6.7l0-37.9h12.7c7.9,0,10.2,2.3,10.2,6.8C63,57.9,60.6,60.3,54,60.3z"
			/>
		<polygon id="XMLID_114_" class="st2" points="60.8,78 65.8,84.2 73.9,84.2 68.8,78 		"/>
	</g>
	<path id="XMLID_110_" class="st1" d="M52.4,33.1L30.1,20.5L52.4,7.9l22.4,12.6L52.4,33.1z M38.8,20.5l13.6,7.7L66,20.5l-13.6-7.7
		L38.8,20.5z"/>
</g>
</svg>
