<?xml version="1.0" encoding="utf-8"?>
<!-- Generator: Adobe Illustrator 19.2.0, SVG Export Plug-In . SVG Version: 6.00 Build 0)  -->
<svg version="1.1" id="レイヤー_1" xmlns="http://www.w3.org/2000/svg" xmlns:xlink="http://www.w3.org/1999/xlink" x="0px"
	 y="0px" viewBox="0 0 394.8 118.3" style="enable-background:new 0 0 394.8 118.3;" xml:space="preserve">
<style type="text/css">
	.st0{fill:#444444;}
	.st1{fill:#EE4035;}
	.st2{fill:#FFFFFF;}
</style>
<polygon id="XMLID_143_" class="st0" points="146.1,78.9 132.4,78.9 137.6,85.5 151.5,85.5 "/>
<path id="XMLID_127_" class="st0" d="M129.3,59h-13L129,74.7h13.6l-5.7-7c6.8-0.3,11.5-3.6,14.6-7.5c3.1-3.9,4.7-8.6,4.7-14
	c0-7-2.5-12.6-7.5-16.8c-4.5-3.8-9.3-5.7-18.4-5.7H93.5v76.7h11.6l0-65.8h22c13.7,0,17.8,3.9,17.8,11.8
	C144.9,54.8,140.8,59,129.3,59z"/>
<polygon id="XMLID_126_" class="st0" points="141,89.7 149.7,100.4 163.8,100.4 155,89.7 "/>
<g id="XMLID_105_">
	<path id="XMLID_119_" class="st1" d="M75.8,79.8c0,7.4-6.1,13.5-13.5,13.5H14.5C7.1,93.3,1,87.2,1,79.8V37
		c0-7.4,6.1-13.5,13.5-13.5h47.8c7.4,0,13.5,6.1,13.5,13.5V79.8z"/>
	<polygon id="XMLID_118_" class="st1" points="3.6,107.9 17.1,107.9 32.7,95.8 32.6,95.6 19.3,95.6 	"/>
	<polygon id="XMLID_117_" class="st1" points="74.5,107.9 61,107.9 45.4,95.8 45.5,95.6 58.8,95.6 	"/>
	<g id="XMLID_113_">
		<polygon id="XMLID_116_" class="st2" points="51.8,69.9 43.5,69.9 46.7,73.9 55.1,73.9 		"/>
		<path id="XMLID_115_" class="st2" d="M41.7,57.8h-7.9l7.7,9.5h8.3l-3.5-4.2c4.1-0.2,7-2.2,8.8-4.5c1.9-2.4,2.8-5.2,2.8-8.5
			c0-4.2-1.5-7.6-4.5-10.2c-2.7-2.3-5.7-3.5-11.1-3.5H20v46.4h7l0-39.9h13.3c8.3,0,10.8,2.4,10.8,7.1C51.1,55.3,48.6,57.8,41.7,57.8
			z"/>
		<polygon id="XMLID_114_" class="st2" points="48.7,76.4 54,82.9 62.6,82.9 57.2,76.4 		"/>
	</g>
	<path id="XMLID_110_" class="st1" d="M39.9,29.3L16.4,16L39.9,2.8L63.4,16L39.9,29.3z M25.7,16l14.3,8.1L54.2,16L39.9,8L25.7,16z"
		/>
</g>
<path class="st0" d="M197.3,51.5h10.9v46.9h-10.9v-4.9c-4.5,4.2-9.3,6.3-14.4,6.3c-6.5,0-11.8-2.3-16.1-7
	c-4.2-4.8-6.3-10.8-6.3-17.9c0-7,2.1-12.9,6.3-17.6c4.2-4.7,9.5-7,15.8-7c5.5,0,10.4,2.2,14.7,6.7V51.5z M171.6,74.8
	c0,4.5,1.2,8.2,3.6,11c2.5,2.9,5.6,4.3,9.3,4.3c4,0,7.3-1.4,9.7-4.1c2.5-2.9,3.7-6.5,3.7-10.9c0-4.4-1.2-8-3.7-10.9
	c-2.5-2.8-5.7-4.2-9.6-4.2c-3.7,0-6.8,1.4-9.3,4.2C172.9,67.1,171.6,70.6,171.6,74.8z"/>
<path class="st0" d="M215.3,32c0-1.9,0.7-3.5,2.1-4.9c1.4-1.4,3-2.1,5-2.1c2,0,3.6,0.7,5,2.1c1.4,1.3,2.1,3,2.1,5c0,2-0.7,3.6-2.1,5
	c-1.3,1.4-3,2.1-5,2.1c-2,0-3.6-0.7-5-2.1C216,35.7,215.3,34,215.3,32z M227.8,51.5v46.9H217V51.5H227.8z"/>
<path class="st0" d="M247.4,24.4v74.1h-10.8V24.4H247.4z"/>
<path class="st0" d="M267.7,24.1v63.8h21.9v10.5h-33.1V24.1H267.7z"/>
<path class="st0" d="M327.7,51.5h10.9v46.9h-10.9v-4.9c-4.5,4.2-9.3,6.3-14.4,6.3c-6.5,0-11.8-2.3-16.1-7C293.1,88,291,82,291,74.8
	c0-7,2.1-12.9,6.3-17.6c4.2-4.7,9.5-7,15.8-7c5.5,0,10.4,2.2,14.7,6.7V51.5z M302,74.8c0,4.5,1.2,8.2,3.6,11
	c2.5,2.9,5.6,4.3,9.3,4.3c4,0,7.3-1.4,9.7-4.1c2.5-2.9,3.7-6.5,3.7-10.9c0-4.4-1.2-8-3.7-10.9c-2.5-2.8-5.7-4.2-9.6-4.2
	c-3.7,0-6.8,1.4-9.3,4.2C303.3,67.1,302,70.6,302,74.8z"/>
<path class="st0" d="M355.5,24.4V57c4.3-4.5,9.2-6.7,14.7-6.7c6.3,0,11.6,2.4,15.8,7.1c4.2,4.7,6.3,10.5,6.3,17.5
	c0,7.2-2.1,13.2-6.4,17.9c-4.2,4.7-9.5,7-15.9,7c-5.4,0-10.3-2.1-14.5-6.3v4.9h-10.8V24.4H355.5z M381.2,75.3c0-4.5-1.2-8.2-3.7-11
	c-2.5-2.9-5.6-4.3-9.3-4.3c-4,0-7.2,1.4-9.7,4.2c-2.5,2.8-3.7,6.4-3.7,10.8c0,4.6,1.2,8.2,3.7,10.9c2.4,2.8,5.6,4.2,9.6,4.2
	c3.8,0,6.9-1.4,9.3-4.2C380,83.1,381.2,79.6,381.2,75.3z"/>
</svg>
